<svg xmlns="http://www.w3.org/2000/svg" viewBox="0 0 1600 1000" width="1600" height="1000">
  <rect width="1600" height="1000" fill="#0a192f"/>
  <rect x="0" y="0" width="1600" height="80" fill="#020c1b"/>
  <g fill="#ccd6f6" font-family="JetBrains Mono, monospace">
    <text x="40" y="50" font-size="22" font-weight="700">HR · Promotion Workflow</text>
  </g>
  <g fill="#64ffda" font-family="JetBrains Mono, monospace" font-size="18">
    <text x="1480" y="50" text-anchor="end">admin@thaipbs</text>
  </g>

  <g font-family="JetBrains Mono, monospace">
    <rect x="40" y="120" width="370" height="180" rx="8" fill="#112240" stroke="#233554"/>
    <text x="70" y="160" font-size="16" fill="#8892b0">Pending approvals</text>
    <text x="70" y="220" font-size="48" font-weight="700" fill="#ccd6f6">12</text>
    <text x="70" y="270" font-size="16" fill="#64ffda">3 due this week</text>

    <rect x="430" y="120" width="370" height="180" rx="8" fill="#112240" stroke="#233554"/>
    <text x="460" y="160" font-size="16" fill="#8892b0">Active employees</text>
    <text x="460" y="220" font-size="48" font-weight="700" fill="#ccd6f6">547</text>
    <text x="460" y="270" font-size="16" fill="#64ffda">+8 this quarter</text>

    <rect x="820" y="120" width="370" height="180" rx="8" fill="#112240" stroke="#233554"/>
    <text x="850" y="160" font-size="16" fill="#8892b0">Promotions YTD</text>
    <text x="850" y="220" font-size="48" font-weight="700" fill="#ccd6f6">34</text>
    <text x="850" y="270" font-size="16" fill="#64ffda">11 this month</text>

    <rect x="1210" y="120" width="350" height="180" rx="8" fill="#112240" stroke="#233554"/>
    <text x="1240" y="160" font-size="16" fill="#8892b0">Avg cycle time</text>
    <text x="1240" y="220" font-size="48" font-weight="700" fill="#ccd6f6">4.2d</text>
    <text x="1240" y="270" font-size="16" fill="#64ffda">-1.8d vs last year</text>
  </g>

  <g font-family="JetBrains Mono, monospace">
    <text x="40" y="370" font-size="20" font-weight="700" fill="#ccd6f6">Recent submissions</text>

    <rect x="40" y="400" width="1520" height="80" rx="6" fill="#112240" stroke="#233554"/>
    <text x="70" y="445" font-size="16" fill="#ccd6f6">EMP-1429 · Senior Producer → Executive Producer</text>
    <text x="1100" y="445" font-size="16" fill="#8892b0">Submitted 2h ago</text>
    <rect x="1380" y="420" width="150" height="40" rx="4" fill="#64ffda" opacity="0.15"/>
    <text x="1455" y="446" font-size="14" fill="#64ffda" text-anchor="middle">In review</text>

    <rect x="40" y="500" width="1520" height="80" rx="6" fill="#112240" stroke="#233554"/>
    <text x="70" y="545" font-size="16" fill="#ccd6f6">EMP-0883 · Journalist → Senior Journalist</text>
    <text x="1100" y="545" font-size="16" fill="#8892b0">Submitted 1d ago</text>
    <rect x="1380" y="520" width="150" height="40" rx="4" fill="#64ffda" opacity="0.15"/>
    <text x="1455" y="546" font-size="14" fill="#64ffda" text-anchor="middle">Approved</text>

    <rect x="40" y="600" width="1520" height="80" rx="6" fill="#112240" stroke="#233554"/>
    <text x="70" y="645" font-size="16" fill="#ccd6f6">EMP-2204 · Editor → Senior Editor</text>
    <text x="1100" y="645" font-size="16" fill="#8892b0">Submitted 3d ago</text>
    <rect x="1380" y="620" width="150" height="40" rx="4" fill="#64ffda" opacity="0.15"/>
    <text x="1455" y="646" font-size="14" fill="#64ffda" text-anchor="middle">Approved</text>

    <rect x="40" y="700" width="1520" height="80" rx="6" fill="#112240" stroke="#233554"/>
    <text x="70" y="745" font-size="16" fill="#ccd6f6">EMP-1077 · Sound Engineer → Lead Sound Engineer</text>
    <text x="1100" y="745" font-size="16" fill="#8892b0">Submitted 5d ago</text>
    <rect x="1380" y="720" width="150" height="40" rx="4" fill="#ccd6f6" opacity="0.1"/>
    <text x="1455" y="746" font-size="14" fill="#8892b0" text-anchor="middle">Pending</text>
  </g>
</svg>
