<svg width="240" height="90" viewBox="0 0 240 90" xmlns="http://www.w3.org/2000/svg" fill="none">
  <g fill="#0A0A0A">
    <!-- Cloud outline -->
    <path d="M60 55c-10 0-18-7-18-16 0-8 6-14 14-15 2-10 11-17 22-17 10 0 19 6 22 15 8 1 14 7 14 15 0 9-8 16-18 16H60z" fill="none" stroke="#0A0A0A" stroke-width="6" stroke-linecap="round" stroke-linejoin="round"/>
    
    <!-- Infinity symbol -->
    <path d="M82 58c-7-8-15-8-22 0 7 8 15 8 22 0zm0 0c7-8 15-8 22 0-7 8-15 8-22 0z" stroke="#0A0A0A" stroke-width="6" stroke-linecap="round" stroke-linejoin="round"/>

    <!-- SP Text -->
    <text x="130" y="63" font-family="Arial, sans-serif" font-size="48" font-weight="700" fill="#0A0A0A">
      SP
    </text>
  </g>
</svg>